HIERARCHY
ROOT Hips
{
    OFFSET   0.000000   0.000000   0.000000
    CHANNELS 6 Xposition Yposition Zposition Zrotation Xrotation Yrotation
    JOINT Chest
    {
        OFFSET   0.000000   8.007230   0.000000
        CHANNELS 3 Zrotation Xrotation Yrotation
        JOINT Chest2
        {
            OFFSET   0.000000  22.077100   0.000000
            CHANNELS 3 Zrotation Xrotation Yrotation
            JOINT Neck
            {
                OFFSET   0.000000  23.255100   0.000000
                CHANNELS 3 Zrotation Xrotation Yrotation
                JOINT Head
                {
                    OFFSET   0.000000  14.370100   1.956600
                    CHANNELS 3 Zrotation Xrotation Yrotation
                    End Site
                    {
                        OFFSET   0.000000  19.566000   0.000000
                    }
                }
            }
            JOINT LeftCollar
            {
                OFFSET   3.911900  19.017000  -0.467063
                CHANNELS 3 Zrotation Xrotation Yrotation
                JOINT LeftShoulder
                {
                    OFFSET  10.383700   0.000000   0.000000
                    CHANNELS 3 Zrotation Xrotation Yrotation
                    JOINT LeftElbow
                    {
                        OFFSET  26.662100   0.001193   0.000980
                        CHANNELS 3 Zrotation Xrotation Yrotation
                        JOINT LeftWrist
                        {
                            OFFSET  28.869000  -0.000059  -0.000082
                            CHANNELS 3 Zrotation Xrotation Yrotation
                            JOINT LeftFinger0
                            {
                                OFFSET   2.044650  -2.323450   3.252850
                                CHANNELS 3 Zrotation Xrotation Yrotation
                                JOINT LeftFinger01
                                {
                                    OFFSET   3.088130   0.000000   0.000000
                                    CHANNELS 3 Zrotation Xrotation Yrotation
                                    JOINT LeftFinger02
                                    {
                                        OFFSET   2.639460   0.000000   0.000000
                                        CHANNELS 3 Zrotation Xrotation Yrotation
                                        End Site
                                        {
                                            OFFSET   2.582190   0.000000   0.000000
                                        }
                                    }
                                }
                            }
                            JOINT LeftFinger1
                            {
                                OFFSET   8.364480   0.000000   3.252850
                                CHANNELS 3 Zrotation Xrotation Yrotation
                                JOINT LeftFinger11
                                {
                                    OFFSET   4.646930   0.000000   0.000000
                                    CHANNELS 3 Zrotation Xrotation Yrotation
                                    JOINT LeftFinger12
                                    {
                                        OFFSET   2.323470   0.000000   0.000000
                                        CHANNELS 3 Zrotation Xrotation Yrotation
                                        End Site
                                        {
                                            OFFSET   2.273050   0.000000   0.000000
                                        }
                                    }
                                }
                            }
                            JOINT LeftFinger2
                            {
                                OFFSET   8.364490   0.000016   1.078090
                                CHANNELS 3 Zrotation Xrotation Yrotation
                                JOINT LeftFinger21
                                {
                                    OFFSET   5.111610   0.000000   0.000000
                                    CHANNELS 3 Zrotation Xrotation Yrotation
                                    JOINT LeftFinger22
                                    {
                                        OFFSET   2.788150   0.000016   0.000000
                                        CHANNELS 3 Zrotation Xrotation Yrotation
                                        End Site
                                        {
                                            OFFSET   2.727660   0.000000   0.000000
                                        }
                                    }
                                }
                            }
                            JOINT LeftFinger3
                            {
                                OFFSET   7.899780   0.000015  -1.078090
                                CHANNELS 3 Zrotation Xrotation Yrotation
                                JOINT LeftFinger31
                                {
                                    OFFSET   4.646930   0.000000   0.000000
                                    CHANNELS 3 Zrotation Xrotation Yrotation
                                    JOINT LeftFinger32
                                    {
                                        OFFSET   2.323470   0.000000   0.000000
                                        CHANNELS 3 Zrotation Xrotation Yrotation
                                        End Site
                                        {
                                            OFFSET   2.273050   0.000000   0.000000
                                        }
                                    }
                                }
                            }
                            JOINT LeftFinger4
                            {
                                OFFSET   7.435090   0.000000  -3.252850
                                CHANNELS 3 Zrotation Xrotation Yrotation
                                JOINT LeftFinger41
                                {
                                    OFFSET   3.717550   0.000000   0.000000
                                    CHANNELS 3 Zrotation Xrotation Yrotation
                                    JOINT LeftFinger42
                                    {
                                        OFFSET   1.858770   0.000000   0.000000
                                        CHANNELS 3 Zrotation Xrotation Yrotation
                                        End Site
                                        {
                                            OFFSET   1.818440   0.000000   0.000000
                                        }
                                    }
                                }
                            }
                        }
                    }
                }
            }
            JOINT RightCollar
            {
                OFFSET  -3.911910  19.017000  -0.467062
                CHANNELS 3 Zrotation Xrotation Yrotation
                JOINT RightShoulder
                {
                    OFFSET -10.383700   0.000014   0.000000
                    CHANNELS 3 Zrotation Xrotation Yrotation
                    JOINT RightElbow
                    {
                        OFFSET -26.662100   0.001225   0.001091
                        CHANNELS 3 Zrotation Xrotation Yrotation
                        JOINT RightWrist
                        {
                            OFFSET -28.869000  -0.000020  -0.000085
                            CHANNELS 3 Zrotation Xrotation Yrotation
                            JOINT RightFinger0
                            {
                                OFFSET  -2.044650  -2.323490   3.252850
                                CHANNELS 3 Zrotation Xrotation Yrotation
                                JOINT RightFinger01
                                {
                                    OFFSET  -3.088130   0.000000   0.000000
                                    CHANNELS 3 Zrotation Xrotation Yrotation
                                    JOINT RightFinger02
                                    {
                                        OFFSET  -2.639460   0.000000   0.000000
                                        CHANNELS 3 Zrotation Xrotation Yrotation
                                        End Site
                                        {
                                            OFFSET  -2.582190   0.000000   0.000000
                                        }
                                    }
                                }
                            }
                            JOINT RightFinger1
                            {
                                OFFSET  -8.364480   0.000000   3.252850
                                CHANNELS 3 Zrotation Xrotation Yrotation
                                JOINT RightFinger11
                                {
                                    OFFSET  -4.646930   0.000000   0.000000
                                    CHANNELS 3 Zrotation Xrotation Yrotation
                                    JOINT RightFinger12
                                    {
                                        OFFSET  -2.323470   0.000000   0.000000
                                        CHANNELS 3 Zrotation Xrotation Yrotation
                                        End Site
                                        {
                                            OFFSET  -2.273050   0.000000   0.000000
                                        }
                                    }
                                }
                            }
                            JOINT RightFinger2
                            {
                                OFFSET  -8.364480   0.000000   1.078090
                                CHANNELS 3 Zrotation Xrotation Yrotation
                                JOINT RightFinger21
                                {
                                    OFFSET  -5.111620   0.000000   0.000000
                                    CHANNELS 3 Zrotation Xrotation Yrotation
                                    JOINT RightFinger22
                                    {
                                        OFFSET  -2.788160   0.000000   0.000000
                                        CHANNELS 3 Zrotation Xrotation Yrotation
                                        End Site
                                        {
                                            OFFSET  -2.727660   0.000000   0.000000
                                        }
                                    }
                                }
                            }
                            JOINT RightFinger3
                            {
                                OFFSET  -7.899780   0.000000  -1.078090
                                CHANNELS 3 Zrotation Xrotation Yrotation
                                JOINT RightFinger31
                                {
                                    OFFSET  -4.646930   0.000000   0.000000
                                    CHANNELS 3 Zrotation Xrotation Yrotation
                                    JOINT RightFinger32
                                    {
                                        OFFSET  -2.323470   0.000000   0.000000
                                        CHANNELS 3 Zrotation Xrotation Yrotation
                                        End Site
                                        {
                                            OFFSET  -2.273050   0.000000   0.000000
                                        }
                                    }
                                }
                            }
                            JOINT RightFinger4
                            {
                                OFFSET  -7.435090   0.000000  -3.252850
                                CHANNELS 3 Zrotation Xrotation Yrotation
                                JOINT RightFinger41
                                {
                                    OFFSET  -3.717550   0.000000   0.000000
                                    CHANNELS 3 Zrotation Xrotation Yrotation
                                    JOINT RightFinger42
                                    {
                                        OFFSET  -1.858760   0.000000   0.000000
                                        CHANNELS 3 Zrotation Xrotation Yrotation
                                        End Site
                                        {
                                            OFFSET  -1.818440   0.000000   0.000000
                                        }
                                    }
                                }
                            }
                        }
                    }
                }
            }
        }
    }
    JOINT LeftHip
    {
        OFFSET   9.783030   0.000000   0.000000
        CHANNELS 3 Zrotation Xrotation Yrotation
        JOINT LeftKnee
        {
            OFFSET   0.000063 -41.789100   0.000608
            CHANNELS 3 Zrotation Xrotation Yrotation
            JOINT LeftAnkle
            {
                OFFSET   0.000048 -41.133200  -0.000184
                CHANNELS 3 Zrotation Xrotation Yrotation
                JOINT LeftToe
                {
                    OFFSET   0.000000  -6.358960  14.674500
                    CHANNELS 3 Zrotation Xrotation Yrotation
                    End Site
                    {
                        OFFSET   0.000000   0.000000   3.913200
                    }
                }
            }
        }
    }
    JOINT RightHip
    {
        OFFSET  -9.783030   0.000000   0.000000
        CHANNELS 3 Zrotation Xrotation Yrotation
        JOINT RightKnee
        {
            OFFSET   0.000071 -41.789100   0.001239
            CHANNELS 3 Zrotation Xrotation Yrotation
            JOINT RightAnkle
            {
                OFFSET   0.000037 -41.133200  -0.000166
                CHANNELS 3 Zrotation Xrotation Yrotation
                JOINT RightToe
                {
                    OFFSET   0.000000  -6.358960  14.674500
                    CHANNELS 3 Zrotation Xrotation Yrotation
                    End Site
                    {
                        OFFSET   0.000000   0.000000   3.913200
                    }
                }
            }
        }
    }
}
MOTION
Frames: 6
Frame Time:   0.016667
 -1.463140  89.659500  -2.206090  -1.047210 -14.447800  -1.468030  -2.241310  10.186400   1.650290  -4.903790  20.293300   3.803540   2.137160   1.971890  -0.073500   3.522210   3.981720  13.055500  -6.909400  -6.697060   3.914120 -69.179100  24.399600 -23.152400   9.550940   2.301820 -88.325100  55.469900 -36.953300  25.224700  61.931400  55.730100 -109.257000 -30.053600  -0.013259  -0.006098 -10.026800  -0.004681  -0.010739 -88.995900   4.999200  -0.091633 -86.511900   0.016911   0.014312 -64.883900   0.000370   0.015970 -89.000000   0.011444  -0.006808 -101.430000   0.014121   0.016645 -76.072300  -0.009900   0.013720 -82.404300  -4.952610   0.658124 -82.432600   0.000917   0.000428 -61.824500   0.002258   0.001016 -81.392000  -9.902030   1.503370 -110.000000   0.008053  -0.005236 -80.081300   0.004724  -0.004842  11.574200  -4.764460  15.071700  52.560800  18.673500  38.484000 -10.909800 -21.892100  84.003300 -33.327100  14.104000  18.662200 -30.740100  27.112700  67.735600  42.142600   0.009005  -0.019020  16.731000   0.016697  -0.002349  77.860100   3.818930   0.807404  63.730100   0.014177  -0.006332  47.797500  -0.007708  -0.012832  79.083500   0.054778   0.008843  79.085100   0.011574  -0.022571  59.313800  -0.008590  -0.016086  79.464500  -4.835260  -0.896986  79.504400   0.016097  -0.030389  59.628300  -0.002000  -0.022251  85.567900  -9.929050  -0.762759 110.000000  -0.003213  -0.001434  80.140500  -0.006704   0.004221   2.807710  11.548400   2.086090   1.213890   5.379710  10.335200  -7.403500  -3.748360   3.786900  -0.000000   0.000000   0.000000   3.288660  10.248700  -9.143480  -1.769790   7.160350  -5.030060  -8.058660  -0.890618  -0.913907  -0.000000   0.000000   0.000000
 -1.463390  89.651300  -2.196060  -1.001620 -14.456700  -1.230890  -2.163350  10.205900   1.681640  -4.751080  20.334100   3.854380   2.029470   1.876790  -0.066307   3.343660   3.790950  12.501500  -6.970860  -6.802160   3.610810 -68.427100  24.829700 -24.080900  10.039300   1.207450 -88.109700  51.357700 -35.636100  22.109500  62.962900  56.084000 -110.036000 -30.279500  -0.039526  -0.023005 -10.139700  -0.013823  -0.031828 -88.995900   4.999220  -0.091688 -87.172900   0.017377   0.015012 -65.379700   0.000501   0.016491 -89.000000   0.011487  -0.006902 -101.860000   0.014194   0.017223 -76.395000  -0.010738   0.013799 -82.260700  -4.953960   0.672381 -82.289800   0.000214   0.000720 -61.717400   0.002362   0.000406 -80.607100  -9.884780   1.644220 -110.000000   0.008184  -0.005325 -80.173700   0.016757  -0.015753  11.692400  -4.848310  14.914200  53.616700  18.684800  37.409300 -10.735300 -21.679800  83.828000 -36.593500  10.084300  21.267000 -30.560700  27.330500  67.600000  41.474000   0.074060  -0.065352  16.222300   0.083343  -0.027750  76.662200   3.524580   0.811228  62.749400   0.019673  -0.007149  47.062000  -0.008176  -0.015821  77.616400   0.098118   0.016967  77.620000   0.018634  -0.024622  58.215000  -0.009673  -0.021631  78.076400  -4.752430  -1.001970  78.122400   0.027875  -0.038867  58.591800  -0.002076  -0.033272  84.241200  -9.883720  -0.983733 110.000000  -0.003189  -0.001481  80.309700  -0.014728   0.004167   2.810260  11.527000   2.135090   1.260720   5.401170  10.190800  -7.425550  -3.726650   3.648380   0.000000   0.000000   0.000000   3.303400  10.298400  -9.166610  -1.747930   7.159710  -5.155840  -8.027490  -0.917351  -0.970036  -0.000000   0.000000   0.000000
 -1.445510  89.647400  -2.186280  -0.937488 -14.497100  -0.989628  -2.062740  10.246900   1.722910  -4.555010  20.418000   3.922570   1.920440   1.780070  -0.059415   3.163020   3.597250  11.849700  -7.047160  -6.952690   3.188930 -67.252200  25.484300 -25.409000  10.659300   0.169479 -87.605800  47.221700 -34.256400  18.493000  63.606400  56.550400 -110.412000 -31.016800  -0.060758  -0.037461 -10.508900  -0.020784  -0.049431 -88.995900   4.999230  -0.091740 -87.918200   0.014337   0.011289 -65.938700   0.000652   0.013394 -89.000000   0.011554  -0.007001 -102.496000   0.009936   0.011609 -76.872100  -0.007105   0.009522 -82.262500  -4.960510   0.676376 -82.291500  -0.005611  -0.003333 -61.718700   0.002465  -0.004947 -80.049000  -9.878390   1.750740 -110.000000   0.008318  -0.005432 -80.044900   0.030662  -0.027098  11.884900  -4.976370  14.769200  54.716800  18.796000  36.038000 -10.290400 -21.538700  83.790000 -41.084200   4.610220  23.876400 -30.072700  27.835000  67.070600  41.559100   0.155714  -0.138821  16.352700   0.160422  -0.075633  74.791800   3.052500   0.807821  61.215300   0.016188  -0.007949  45.911500  -0.008739  -0.014198  75.577700   0.036661   0.000158  75.581500   0.015181  -0.021200  56.686200  -0.010763  -0.018271  76.064700  -4.767930  -1.179460  76.120200   0.025475  -0.034279  57.090200  -0.002153  -0.030039  82.219400  -9.841500  -1.332040 110.000000  -0.003162  -0.001516  80.103700  -0.014019   0.004109   2.790500  11.546700   2.132180   1.284190   5.391800  10.099800  -7.435530  -3.692580   3.511850   0.000000   0.000000   0.000000   3.288480  10.375000  -9.163290  -1.729080   7.162680  -5.295760  -7.998480  -0.941587  -1.055940   0.000000   0.000000  -0.000000
 -1.407950  89.646500  -2.177300  -0.866168 -14.552000  -0.761161  -1.938640  10.305300   1.764000  -4.311760  20.537800   3.986840   1.803560   1.680340  -0.052614   2.969400   3.397290  11.150000  -7.140570  -7.142200   2.718820 -65.742600  26.272100 -27.032600  11.186000  -1.270500 -87.195100  42.881400 -32.566600  14.544000  64.283200  57.048800 -110.822000 -32.220100  -0.072491  -0.045644 -11.110000  -0.024524  -0.059297 -88.995900   4.999240  -0.091790 -88.413000   0.007740   0.005106 -66.309800   0.000813   0.006858 -89.000000   0.011623  -0.007102 -102.897000   0.002459   0.001091 -77.172600  -0.000369   0.001990 -82.263900  -4.965890   0.684102 -82.293200  -0.013319  -0.009334 -61.719900   0.002566  -0.012101 -79.474200  -9.868430   1.857250 -110.000000   0.008451  -0.005544 -79.628400   0.039380  -0.033953  12.130500  -5.108980  14.686400  55.899900  18.850800  34.422100  -9.949840 -21.203200  83.885100 -46.530100  -1.137690  25.421200 -29.530400  28.376900  66.393300  42.152900   0.208026  -0.188331  17.264900   0.208756  -0.108859  73.571300   2.742610   0.804578  60.213900   0.009366  -0.008735  45.160400  -0.009072  -0.010662  74.284600  -0.053607  -0.023443  74.288100   0.008388  -0.015322  55.716200  -0.011847  -0.011688  74.499900  -4.805080  -1.339790  74.559800   0.018687  -0.024515  55.919900  -0.002217  -0.021956  80.373600  -9.817020  -1.653820 110.000000  -0.003133  -0.001550  79.797700  -0.010834   0.004051   2.748330  11.581800   2.111040   1.297300   5.365130  10.032100  -7.437920  -3.652830   3.401190  -0.000000   0.000000   0.000000   3.250940  10.460200  -9.138330  -1.707750   7.168650  -5.459750  -7.977020  -0.968185  -1.142230  -0.000000   0.000000   0.000000
 -1.362160  89.651100  -2.170860  -0.787273 -14.601300  -0.556313  -1.785700  10.383500   1.794540  -4.008400  20.698600   4.024790   1.676180   1.576670  -0.045827   2.758930   3.189060  10.432500  -7.252220  -7.381250   2.264590 -63.841500  27.228500 -28.956600  11.450000  -3.206600 -86.644400  38.082700 -30.278000  10.149500  64.786800  57.891200 -111.353000 -34.057700  -0.048882  -0.032692 -12.022500  -0.015395  -0.042878 -88.995900   4.999240  -0.091837 -88.491800  -0.003452  -0.001008 -66.368900   0.000978  -0.003801 -89.000000   0.011677  -0.007206 -102.881000  -0.006158  -0.012904 -77.160500   0.008406  -0.006753 -82.061700  -4.965670   0.709546 -82.092100  -0.018110  -0.013069 -61.569100   0.002665  -0.016607 -78.677000  -9.841660   1.990520 -110.000000   0.008577  -0.005647 -78.840700   0.037099  -0.031309  12.436300  -5.203400  14.711400  57.085700  18.724700  32.585400  -9.480520 -20.455400  84.421900 -54.143000  -6.643620  25.527400 -28.446200  28.414800  65.129500  44.458700   0.179657  -0.173659  20.070300   0.172285  -0.100262  73.707900   2.768880   0.805900  60.324400  -0.000370  -0.009509  45.243400  -0.008206  -0.004726  74.418100  -0.107394  -0.033798  74.420000  -0.000061  -0.009434  55.815100  -0.012913  -0.002156  74.142300  -4.875860  -1.395060  74.201200   0.003532  -0.008394  55.650900  -0.002253  -0.005786  79.643900  -9.828790  -1.788300 110.000000  -0.003103  -0.001594  79.604100  -0.001635   0.003998   2.695850  11.618700   2.047960   1.288390   5.323370   9.971920  -7.424160  -3.614650   3.345530   0.000000   0.000000  -0.000000   3.209200  10.536100  -9.076010  -1.699910   7.180060  -5.659030  -7.968140  -1.002120  -1.220810  -0.000000   0.000000   0.000000
 -1.305960  89.661100  -2.167940  -0.709126 -14.629100  -0.383890  -1.614980  10.468700   1.822290  -3.668310  20.874400   4.053640   1.532690   1.468160  -0.038969   2.521920   2.970730   9.723430  -7.385860  -7.640030   1.807050 -61.814400  28.060300 -30.976000  11.931900  -5.292660 -86.368300  33.562700 -27.659200   6.070090  64.693400  58.559200 -111.185000 -35.897800  -0.024290  -0.017507 -12.939200  -0.006266  -0.022075 -88.995900   4.999250  -0.091884 -88.503100  -0.011086  -0.004662 -66.377300   0.001151  -0.011021 -89.000000   0.011728  -0.007312 -102.768000  -0.011556  -0.021997 -77.076000   0.014078  -0.012241 -81.594600  -4.964270   0.747767 -81.626400  -0.020333  -0.014857 -61.219800   0.002764  -0.018721 -77.768100  -9.804050   2.136940 -110.000000   0.008707  -0.005752 -77.871400   0.030393  -0.024857  12.735800  -5.272110  14.735800  58.454100  18.323100  30.588000  -8.807820 -19.394900  85.255000 -62.005900 -11.458000  25.380100 -27.064500  27.658400  63.576900  47.498200   0.131292  -0.143147  23.465200   0.111649  -0.081293  74.077800   2.851420   0.809751  60.625900  -0.007022  -0.010265  45.469500  -0.007023  -0.000524  74.718100  -0.132370  -0.037363  74.717800  -0.008078  -0.004980  56.038400  -0.013968   0.004153  74.090300  -4.925070  -1.403040  74.150000  -0.007234   0.002550  55.612500  -0.002277   0.005534  79.505900  -9.844420  -1.818470 110.000000  -0.003074  -0.001637  79.510400   0.005086   0.003944   2.632430  11.650800   1.983210   1.262510   5.270610   9.908360  -7.400510  -3.577300   3.329650  -0.000000   0.000000   0.000000   3.160330  10.599400  -9.000210  -1.706010   7.186810  -5.878230  -7.967220  -1.039750  -1.262800  -0.000000   0.000000   0.000000
